{
	"asset":{
		"generator":"Khronos glTF Blender I/O v4.1.63",
		"version":"2.0"
	},
	"scene":0,
	"scenes":[
		{
			"name":"Scene",
			"nodes":[
				2
			]
		}
	],
	"nodes":[
		{
			"mesh":0,
			"name":"Cylinder",
			"translation":[
				0.01686321757733822,
				-0.04329744353890419,
				0
			]
		},
		{
			"mesh":1,
			"name":"Plane",
			"translation":[
				-0.23634058237075806,
				0,
				0
			]
		},
		{
			"children":[
				0,
				1
			],
			"name":"Empty"
		}
	],
	"animations":[
		{
			"channels":[
				{
					"sampler":0,
					"target":{
						"node":1,
						"path":"rotation"
					}
				}
			],
			"name":"PlaneAction",
			"samplers":[
				{
					"input":8,
					"interpolation":"LINEAR",
					"output":9
				}
			]
		}
	],
	"materials":[
		{
			"doubleSided":true,
			"name":"Material",
			"pbrMetallicRoughness":{
				"baseColorTexture":{
					"index":0
				},
				"metallicRoughnessTexture":{
					"index":1
				}
			}
		},
		{
			"doubleSided":true,
			"name":"Material.001",
			"pbrMetallicRoughness":{
				"baseColorTexture":{
					"index":2
				},
				"metallicRoughnessTexture":{
					"index":3
				}
			}
		}
	],
	"meshes":[
		{
			"name":"Cylinder.001",
			"primitives":[
				{
					"attributes":{
						"POSITION":0,
						"NORMAL":1,
						"TEXCOORD_0":2
					},
					"indices":3,
					"material":0
				}
			]
		},
		{
			"name":"Plane",
			"primitives":[
				{
					"attributes":{
						"POSITION":4,
						"NORMAL":5,
						"TEXCOORD_0":6
					},
					"indices":7,
					"material":1
				}
			]
		}
	],
	"textures":[
		{
			"sampler":0,
			"source":0
		},
		{
			"sampler":0,
			"source":1
		},
		{
			"sampler":0,
			"source":2
		},
		{
			"sampler":0,
			"source":3
		}
	],
	"images":[
		{
			"mimeType":"image/png",
			"name":"Bullet-diff.png",
			"uri":"Bullet-diff.png"
		},
		{
			"mimeType":"image/png",
			"name":"Bullet-rough.png",
			"uri":"Bullet-rough.png"
		},
		{
			"mimeType":"image/png",
			"name":"Arrow-diff.png",
			"uri":"Arrow-diff.png"
		},
		{
			"mimeType":"image/png",
			"name":"Arrow-rough.png",
			"uri":"Arrow-rough.png"
		}
	],
	"accessors":[
		{
			"bufferView":0,
			"componentType":5126,
			"count":7725,
			"max":[
				1.9666693210601807,
				0.4991972744464874,
				0.5063188672065735
			],
			"min":[
				-2.080925941467285,
				-0.5134403705596924,
				-0.5063187479972839
			],
			"type":"VEC3"
		},
		{
			"bufferView":1,
			"componentType":5126,
			"count":7725,
			"type":"VEC3"
		},
		{
			"bufferView":2,
			"componentType":5126,
			"count":7725,
			"type":"VEC2"
		},
		{
			"bufferView":3,
			"componentType":5123,
			"count":43008,
			"type":"SCALAR"
		},
		{
			"bufferView":4,
			"componentType":5126,
			"count":1354,
			"max":[
				0.5916616916656494,
				1.0941864252090454,
				1.0958002805709839
			],
			"min":[
				-0.5916617512702942,
				-0.920460045337677,
				-1.0298197269439697
			],
			"type":"VEC3"
		},
		{
			"bufferView":5,
			"componentType":5126,
			"count":1354,
			"type":"VEC3"
		},
		{
			"bufferView":6,
			"componentType":5126,
			"count":1354,
			"type":"VEC2"
		},
		{
			"bufferView":7,
			"componentType":5123,
			"count":6318,
			"type":"SCALAR"
		},
		{
			"bufferView":8,
			"componentType":5126,
			"count":100,
			"max":[
				4.166666666666667
			],
			"min":[
				0.041666666666666664
			],
			"type":"SCALAR"
		},
		{
			"bufferView":9,
			"componentType":5126,
			"count":100,
			"type":"VEC4"
		}
	],
	"bufferViews":[
		{
			"buffer":0,
			"byteLength":92700,
			"byteOffset":0,
			"target":34962
		},
		{
			"buffer":0,
			"byteLength":92700,
			"byteOffset":92700,
			"target":34962
		},
		{
			"buffer":0,
			"byteLength":61800,
			"byteOffset":185400,
			"target":34962
		},
		{
			"buffer":0,
			"byteLength":86016,
			"byteOffset":247200,
			"target":34963
		},
		{
			"buffer":0,
			"byteLength":16248,
			"byteOffset":333216,
			"target":34962
		},
		{
			"buffer":0,
			"byteLength":16248,
			"byteOffset":349464,
			"target":34962
		},
		{
			"buffer":0,
			"byteLength":10832,
			"byteOffset":365712,
			"target":34962
		},
		{
			"buffer":0,
			"byteLength":12636,
			"byteOffset":376544,
			"target":34963
		},
		{
			"buffer":0,
			"byteLength":400,
			"byteOffset":389180
		},
		{
			"buffer":0,
			"byteLength":1600,
			"byteOffset":389580
		}
	],
	"samplers":[
		{
			"magFilter":9729,
			"minFilter":9987
		}
	],
	"buffers":[
		{
			"byteLength":391180,
			"uri":"Bullet11.bin"
		}
	]
}
